<?xml version="1.0" encoding="UTF-8" standalone="no"?>
<!DOCTYPE svg PUBLIC "-//W3C//DTD SVG 1.1//EN"
 "http://www.w3.org/Graphics/SVG/1.1/DTD/svg11.dtd">
<!-- Generated by graphviz version 2.43.0 (0)
 -->
<!-- Title: FigmaQmlSingleton Pages: 1 -->
<svg width="228pt" height="95pt"
 viewBox="0.00 0.00 228.00 95.00" xmlns="http://www.w3.org/2000/svg" xmlns:xlink="http://www.w3.org/1999/xlink">
<g id="graph0" class="graph" transform="scale(1 1) rotate(0) translate(4 91)">
<title>FigmaQmlSingleton</title>
<!-- Node1 -->
<g id="node1" class="node">
<title>Node1</title>
<g id="a_node1"><a xlink:title="Singleton to access FigmaQml properties and communicate between views.">
<polygon fill="#bfbfbf" stroke="black" points="30.5,-0.5 30.5,-19.5 143.5,-19.5 143.5,-0.5 30.5,-0.5"/>
<text text-anchor="middle" x="87" y="-7.5" font-family="Helvetica,sans-Serif" font-size="10.00">FigmaQmlSingleton</text>
</a>
</g>
</g>
<!-- Node2 -->
<g id="node2" class="node">
<title>Node2</title>
<g id="a_node2"><a xlink:title=" ">
<polygon fill="none" stroke="#bfbfbf" points="0,-62 0,-81 56,-81 56,-62 0,-62"/>
<text text-anchor="middle" x="28" y="-69" font-family="Helvetica,sans-Serif" font-size="10.00">QObject</text>
</a>
</g>
</g>
<!-- Node2&#45;&gt;Node1 -->
<g id="edge1" class="edge">
<title>Node2&#45;&gt;Node1</title>
<path fill="none" stroke="midnightblue" d="M43.54,-54.82C54.75,-43.52 69.46,-28.69 78.56,-19.51"/>
<polygon fill="midnightblue" stroke="midnightblue" points="41.01,-52.41 36.45,-61.98 45.98,-57.34 41.01,-52.41"/>
</g>
<!-- Node3 -->
<g id="node3" class="node">
<title>Node3</title>
<g id="a_node3"><a xlink:title=" ">
<polygon fill="none" stroke="#bfbfbf" points="74,-56.5 74,-86.5 220,-86.5 220,-56.5 74,-56.5"/>
<text text-anchor="start" x="82" y="-74.5" font-family="Helvetica,sans-Serif" font-size="10.00">Qul::Singleton&lt; FigmaQml</text>
<text text-anchor="middle" x="147" y="-63.5" font-family="Helvetica,sans-Serif" font-size="10.00">Singleton &gt;</text>
</a>
</g>
</g>
<!-- Node3&#45;&gt;Node1 -->
<g id="edge2" class="edge">
<title>Node3&#45;&gt;Node1</title>
<path fill="none" stroke="midnightblue" d="M125.62,-49.3C115.32,-39.09 103.55,-27.41 95.73,-19.66"/>
<polygon fill="midnightblue" stroke="midnightblue" points="123.22,-51.84 132.78,-56.4 128.14,-46.87 123.22,-51.84"/>
</g>
</g>
</svg>
