<?xml version="1.0" encoding="UTF-8" standalone="no"?>
<!DOCTYPE svg PUBLIC "-//W3C//DTD SVG 1.1//EN"
 "http://www.w3.org/Graphics/SVG/1.1/DTD/svg11.dtd">
<!-- Generated by graphviz version 2.43.0 (0)
 -->
<!-- Title: FigmaQmlSingleton Pages: 1 -->
<svg width="386pt" height="241pt"
 viewBox="0.00 0.00 386.00 241.00" xmlns="http://www.w3.org/2000/svg" xmlns:xlink="http://www.w3.org/1999/xlink">
<g id="graph0" class="graph" transform="scale(1 1) rotate(0) translate(4 237)">
<title>FigmaQmlSingleton</title>
<!-- Node1 -->
<g id="node1" class="node">
<title>Node1</title>
<g id="a_node1"><a xlink:title="Singleton to access FigmaQml properties and communicate between views.">
<polygon fill="#bfbfbf" stroke="black" points="90.5,-0.5 90.5,-19.5 203.5,-19.5 203.5,-0.5 90.5,-0.5"/>
<text text-anchor="middle" x="147" y="-7.5" font-family="Helvetica,sans-Serif" font-size="10.00">FigmaQmlSingleton</text>
</a>
</g>
</g>
<!-- Node2 -->
<g id="node2" class="node">
<title>Node2</title>
<g id="a_node2"><a xlink:title=" ">
<polygon fill="none" stroke="#bfbfbf" points="0,-73 0,-92 56,-92 56,-73 0,-73"/>
<text text-anchor="middle" x="28" y="-80" font-family="Helvetica,sans-Serif" font-size="10.00">QObject</text>
</a>
</g>
</g>
<!-- Node2&#45;&gt;Node1 -->
<g id="edge1" class="edge">
<title>Node2&#45;&gt;Node1</title>
<path fill="none" stroke="midnightblue" d="M51.42,-67.62C75.44,-53.39 112.06,-31.7 132.29,-19.72"/>
<polygon fill="midnightblue" stroke="midnightblue" points="49.41,-64.75 42.59,-72.86 52.98,-70.77 49.41,-64.75"/>
</g>
<!-- Node3 -->
<g id="node3" class="node">
<title>Node3</title>
<g id="a_node3"><a xlink:title=" ">
<polygon fill="none" stroke="#bfbfbf" points="74,-67.5 74,-97.5 220,-97.5 220,-67.5 74,-67.5"/>
<text text-anchor="start" x="82" y="-85.5" font-family="Helvetica,sans-Serif" font-size="10.00">Qul::Singleton&lt; FigmaQml</text>
<text text-anchor="middle" x="147" y="-74.5" font-family="Helvetica,sans-Serif" font-size="10.00">Singleton &gt;</text>
</a>
</g>
</g>
<!-- Node3&#45;&gt;Node1 -->
<g id="edge2" class="edge">
<title>Node3&#45;&gt;Node1</title>
<path fill="none" stroke="midnightblue" d="M147,-57.09C147,-44.21 147,-29.2 147,-19.89"/>
<polygon fill="midnightblue" stroke="midnightblue" points="143.5,-57.23 147,-67.23 150.5,-57.23 143.5,-57.23"/>
</g>
<!-- Node4 -->
<g id="node4" class="node">
<title>Node4</title>
<g id="a_node4"><a xlink:title=" ">
<polygon fill="none" stroke="#bfbfbf" points="238,-73 238,-92 378,-92 378,-73 238,-73"/>
<text text-anchor="middle" x="308" y="-80" font-family="Helvetica,sans-Serif" font-size="10.00">std::vector&lt; std::string &gt;</text>
</a>
</g>
</g>
<!-- Node4&#45;&gt;Node1 -->
<g id="edge3" class="edge">
<title>Node4&#45;&gt;Node1</title>
<path fill="none" stroke="#9a32cd" stroke-dasharray="5,2" d="M279.15,-68.87C246.61,-54.62 194.57,-31.83 166.49,-19.53"/>
<polygon fill="#9a32cd" stroke="#9a32cd" points="278.02,-72.19 288.58,-73 280.82,-65.78 278.02,-72.19"/>
<text text-anchor="middle" x="256.5" y="-41" font-family="Helvetica,sans-Serif" font-size="10.00"> elements</text>
</g>
<!-- Node5 -->
<g id="node5" class="node">
<title>Node5</title>
<g id="a_node5"><a xlink:title=" ">
<polygon fill="none" stroke="#bfbfbf" points="275.5,-145.5 275.5,-164.5 340.5,-164.5 340.5,-145.5 275.5,-145.5"/>
<text text-anchor="middle" x="308" y="-152.5" font-family="Helvetica,sans-Serif" font-size="10.00">std::string</text>
</a>
</g>
</g>
<!-- Node5&#45;&gt;Node4 -->
<g id="edge4" class="edge">
<title>Node5&#45;&gt;Node4</title>
<path fill="none" stroke="#9a32cd" stroke-dasharray="5,2" d="M308,-134.94C308,-121.03 308,-102.82 308,-92.22"/>
<polygon fill="#9a32cd" stroke="#9a32cd" points="304.5,-135.36 308,-145.36 311.5,-135.36 304.5,-135.36"/>
<text text-anchor="middle" x="332.5" y="-119" font-family="Helvetica,sans-Serif" font-size="10.00"> elements</text>
</g>
<!-- Node6 -->
<g id="node6" class="node">
<title>Node6</title>
<g id="a_node6"><a xlink:title=" ">
<polygon fill="none" stroke="#bfbfbf" points="256,-202.5 256,-232.5 360,-232.5 360,-202.5 256,-202.5"/>
<text text-anchor="start" x="264" y="-220.5" font-family="Helvetica,sans-Serif" font-size="10.00">std::basic_string&lt;</text>
<text text-anchor="middle" x="308" y="-209.5" font-family="Helvetica,sans-Serif" font-size="10.00"> Char &gt;</text>
</a>
</g>
</g>
<!-- Node6&#45;&gt;Node5 -->
<g id="edge5" class="edge">
<title>Node6&#45;&gt;Node5</title>
<path fill="none" stroke="midnightblue" d="M308,-192.35C308,-182.51 308,-171.78 308,-164.54"/>
<polygon fill="midnightblue" stroke="midnightblue" points="304.5,-192.47 308,-202.47 311.5,-192.47 304.5,-192.47"/>
</g>
</g>
</svg>
