<?xml version="1.0" encoding="UTF-8" standalone="no"?>
<!DOCTYPE svg PUBLIC "-//W3C//DTD SVG 1.1//EN"
 "http://www.w3.org/Graphics/SVG/1.1/DTD/svg11.dtd">
<!-- Generated by graphviz version 2.43.0 (0)
 -->
<!-- Title: Graphical Class Hierarchy Pages: 1 -->
<svg width="242pt" height="66pt"
 viewBox="0.00 0.00 242.00 66.00" xmlns="http://www.w3.org/2000/svg" xmlns:xlink="http://www.w3.org/1999/xlink">
<g id="graph0" class="graph" transform="scale(1 1) rotate(0) translate(4 62)">
<title>Graphical Class Hierarchy</title>
<!-- Node1 -->
<g id="node1" class="node">
<title>Node1</title>
<g id="a_node1"><a xlink:title=" ">
<polygon fill="none" stroke="#bfbfbf" points="14.5,-38.5 14.5,-57.5 70.5,-57.5 70.5,-38.5 14.5,-38.5"/>
<text text-anchor="middle" x="42.5" y="-45.5" font-family="Helvetica,sans-Serif" font-size="10.00">QObject</text>
</a>
</g>
</g>
<!-- Node0 -->
<g id="node2" class="node">
<title>Node0</title>
<g id="a_node2"><a xlink:href="classFigmaQmlSingleton.html" target="_top" xlink:title="Singleton to access FigmaQml properties and communicate between views.">
<polygon fill="none" stroke="black" points="121,-19.5 121,-38.5 234,-38.5 234,-19.5 121,-19.5"/>
<text text-anchor="middle" x="177.5" y="-26.5" font-family="Helvetica,sans-Serif" font-size="10.00">FigmaQmlSingleton</text>
</a>
</g>
</g>
<!-- Node1&#45;&gt;Node0 -->
<g id="edge1" class="edge">
<title>Node1&#45;&gt;Node0</title>
<path fill="none" stroke="midnightblue" d="M80.71,-42.68C93.13,-40.91 107.25,-38.89 120.75,-36.96"/>
<polygon fill="midnightblue" stroke="midnightblue" points="80.14,-39.23 70.74,-44.11 81.13,-46.16 80.14,-39.23"/>
</g>
<!-- Node3 -->
<g id="node3" class="node">
<title>Node3</title>
<g id="a_node3"><a xlink:title=" ">
<polygon fill="none" stroke="#bfbfbf" points="0,-0.5 0,-19.5 85,-19.5 85,-0.5 0,-0.5"/>
<text text-anchor="middle" x="42.5" y="-7.5" font-family="Helvetica,sans-Serif" font-size="10.00">Qul::Singleton</text>
</a>
</g>
</g>
<!-- Node3&#45;&gt;Node0 -->
<g id="edge2" class="edge">
<title>Node3&#45;&gt;Node0</title>
<path fill="none" stroke="midnightblue" d="M95.23,-17.39C103.61,-18.59 112.32,-19.83 120.79,-21.04"/>
<polygon fill="midnightblue" stroke="midnightblue" points="95.61,-13.91 85.22,-15.96 94.62,-20.84 95.61,-13.91"/>
</g>
</g>
</svg>
